<svg xmlns="http://www.w3.org/2000/svg" xmlns:xlink="http://www.w3.org/1999/xlink" width="517" height="517" viewBox="0 0 517 517">
  <defs>
    <rect id="logo-a" width="517" height="517" x="0" y="0" rx="100"/>
    <linearGradient id="logo-c" x1="0%" x2="100%" y1="100%" y2="0%">
      <stop offset="0%" stop-color="#B74890"/>
      <stop offset="100%" stop-color="#E95C7C"/>
    </linearGradient>
    <linearGradient id="logo-d" x1="50%" x2="50%" y1="0%" y2="100%">
      <stop offset="0%" stop-color="#FFF"/>
      <stop offset="100%" stop-color="#FFF" stop-opacity=".238"/>
    </linearGradient>
    <linearGradient id="logo-e" x1="50%" x2="50%" y1="0%" y2="100%">
      <stop offset="0%" stop-color="#FFF"/>
      <stop offset="100%" stop-color="#FFF" stop-opacity=".282"/>
    </linearGradient>
    <linearGradient id="logo-f" x1="50%" x2="50%" y1="0%" y2="100%">
      <stop offset="0%" stop-color="#FFF" stop-opacity=".415"/>
      <stop offset="100%" stop-color="#FFF"/>
    </linearGradient>
  </defs>
  <g fill="none" fill-rule="evenodd">
    <mask id="logo-b" fill="#fff">
      <use xlink:href="#logo-a"/>
    </mask>
    <g mask="url(#logo-b)">
      <rect width="517" height="517" fill="url(#logo-c)"/>
      <path fill="url(#logo-d)" d="M250.935801,93.0674157 L346.935801,38 L346.935801,117.179356 C346.935801,138.675388 335.436198,158.528974 316.790034,169.224767 L250.935801,207 L250.935801,206.932584 L154.935801,262 L154.935801,182.820644 C154.935801,161.324612 166.435405,141.471026 185.081569,130.775233 L250.935801,93 L250.935801,93.0674157 Z"/>
      <path fill="url(#logo-e)" d="M252.935801,425.932584 L158.935801,481 L158.935801,401.455627 C158.935801,380.155359 170.228632,360.45181 188.607402,349.685093 L252.935801,312 L252.935801,312.741573 L348.935801,258 L348.935801,336.402652 C348.935801,357.953539 337.377935,377.849008 318.656824,388.524248 L252.935801,426 L252.935801,425.932584 Z"/>
      <path fill="url(#logo-f)" d="M322.990967,272.794386 L252.935801,312.741573 L252.935801,312 L251.996534,312.550245 L154.935801,262.079925 L251.010134,207 L348.935801,257.920075 L322.990967,272.794386 Z"/>
    </g>
  </g>
</svg>
